<svg width="934.925px" height="136.16000366210938px" xmlns="http://www.w3.org/2000/svg" viewBox="-217.46249999999998 6.9199981689453125 934.925 136.16000366210938" style="background: rgba(0, 0, 0, 0);" preserveAspectRatio="xMidYMid"><defs><linearGradient id="editing-shiny-gradient" x1="0.7723195175075135" x2="0.22768048249248646" y1="0.08066471602728797" y2="0.919335283972712" gradientUnits="objectBoundingBox"><stop offset="0.0" stop-color="#ffb200"></stop><stop offset="0.5" stop-color="#e10057"></stop><stop offset="1.0" stop-color="#5A1A80"></stop></linearGradient><linearGradient id="editing-shiny-gradient2" x1="0" x2="0" y1="0" y2="1"><stop offset="0.2" stop-color="#fff" stop-opacity="0.8"></stop><stop offset="0.8" stop-color="#fff" stop-opacity="0"></stop></linearGradient><filter id="editing-shiny2" x="-100%" y="-100%" width="300%" height="300%"><feMorphology operator="erode" radius="2"></feMorphology></filter><filter id="editing-shiny" x="-100%" y="-100%" width="300%" height="300%"><feFlood flood-color="#fff" result="flood"></feFlood><feConvolveMatrix in="SourceGraphic" result="conv" order="8,8" divisor="1" kernelMatrix="0 0 0 0 0 0 0 0 0 0 0 1 1 0 0 0 0 0 0 1 1 0 0 0 0 0 1 0 0 1 0 0 0 0 1 0 0 1 0 0 0 1 0 0 0 0 1 0 0 1 1 0 0 1 1 0 0 0 0 1 1 0 0 0 "></feConvolveMatrix><feOffset dx="0" dy="4" in="conv" result="offset"></feOffset><feComposite operator="in" in="flood" in2="offset" result="comp"></feComposite><feGaussianBlur in="offset" stdDeviation="3" result="shadow"></feGaussianBlur><feColorMatrix in="shadow" type="matrix" values="0.7 0 0 0 0  0 0.7 0 0 0  0 0 0.7 0 0  0 0 0 0.3 0" result="dark-shadow"></feColorMatrix><feOffset dx="0" dy="4" in="dark-shadow" result="offset-shadow"></feOffset><feOffset dx="0" dy="2" in="conv" result="offset-2"></feOffset><feComposite operator="out" in="offset" in2="offset-2" result="edge-diff"></feComposite><feGaussianBlur in="edge-diff" stdDeviation="1" result="edge-blur"></feGaussianBlur><feColorMatrix in="edge-blur" result="edge-shadow" type="matrix" values="0 0 0 0 0  0 0 0 0 0  0 0 0 0 0  0 0 0 0.5 0"></feColorMatrix><feComposite operator="in" in="edge-shadow" in2="offset" result="edge-shadow-in"></feComposite><feOffset dx="0" dy="1" in="edge-shadow-in" result="edge-shadow-final"></feOffset><feMerge result="out"><feMergeNode in="offset-shadow"></feMergeNode><feMergeNode in="comp"></feMergeNode><feMergeNode in="edge-shadow-final"></feMergeNode><feMergeNode in="SourceGraphic"></feMergeNode></feMerge></filter></defs><g filter="url(#editing-shiny)"><g transform="translate(-86.99995994567871, 107.83000183105469)"><path d="M13.51-46.91L13.51-27.74L43.38-27.74L43.38-46.91L51.89-46.91L51.89 0L43.38 0L43.38-19.17L13.51-19.17L13.51 0L5.01 0L5.01-46.91L13.51-46.91ZM98.70-23.65L98.70-23.65L98.70-23.65Q98.70-21.89 98.08-19.84L98.08-19.84L98.08-19.84Q97.46-17.80 96.07-16.05L96.07-16.05L96.07-16.05Q94.68-14.30 92.44-13.12L92.44-13.12L92.44-13.12Q90.19-11.94 86.99-11.94L86.99-11.94L71.65-11.94L71.65-20.02L86.99-20.02L86.99-20.02Q88.72-20.02 89.67-21.08L89.67-21.08L89.67-21.08Q90.62-22.15 90.62-23.72L90.62-23.72L90.62-23.72Q90.62-25.39 89.56-26.34L89.56-26.34L89.56-26.34Q88.49-27.28 86.99-27.28L86.99-27.28L71.65-27.28L71.65-27.28Q69.91-27.28 68.96-26.22L68.96-26.22L68.96-26.22Q68.01-25.16 68.01-23.59L68.01-23.59L68.01-11.71L68.01-11.71Q68.01-10.01 69.08-9.06L69.08-9.06L69.08-9.06Q70.14-8.11 71.71-8.11L71.71-8.11L86.99-8.11L86.99 0L71.65 0L71.65 0Q69.88 0 67.83-0.62L67.83-0.62L67.83-0.62Q65.79-1.24 64.04-2.63L64.04-2.63L64.04-2.63Q62.29-4.02 61.11-6.26L61.11-6.26L61.11-6.26Q59.93-8.51 59.93-11.71L59.93-11.71L59.93-23.65L59.93-23.65Q59.93-25.42 60.56-27.46L60.56-27.46L60.56-27.46Q61.18-29.51 62.57-31.26L62.57-31.26L62.57-31.26Q63.96-33.01 66.20-34.19L66.20-34.19L66.20-34.19Q68.44-35.36 71.65-35.36L71.65-35.36L86.99-35.36L86.99-35.36Q88.76-35.36 90.80-34.74L90.80-34.74L90.80-34.74Q92.84-34.12 94.59-32.73L94.59-32.73L94.59-32.73Q96.35-31.34 97.52-29.10L97.52-29.10L97.52-29.10Q98.70-26.86 98.70-23.65ZM143.42-35.36L143.42 3.40L143.42 3.40Q143.42 5.59 142.87 7.34L142.87 7.34L142.87 7.34Q142.31 9.09 141.39 10.42L141.39 10.42L141.39 10.42Q140.48 11.74 139.27 12.68L139.27 12.68L139.27 12.68Q138.06 13.61 136.73 14.20L136.73 14.20L136.73 14.20Q135.41 14.79 134.07 15.07L134.07 15.07L134.07 15.07Q132.72 15.34 131.51 15.34L131.51 15.34L116.17 15.34L116.17 6.84L131.51 6.84L131.51 6.84Q133.21 6.84 134.07 5.95L134.07 5.95L134.07 5.95Q134.92 5.07 134.92 3.40L134.92 3.40L134.92-35.36L143.42-35.36ZM131.51-8.51L131.51 0L116.17 0L116.17 0Q114.34 0 112.26-0.62L112.26-0.62L112.26-0.62Q110.18-1.24 108.38-2.67L108.38-2.67L108.38-2.67Q106.58-4.09 105.41-6.36L105.41-6.36L105.41-6.36Q104.23-8.64 104.23-11.94L104.23-11.94L104.23-35.36L112.74-35.36L112.74-11.94L112.74-11.94Q112.74-10.27 113.62-9.39L113.62-9.39L113.62-9.39Q114.50-8.51 116.24-8.51L116.24-8.51L131.51-8.51ZM221.02-31.14L221.02-27.28L221.02-27.28Q221.02-24.37 220.30-22.08L220.30-22.08L220.30-22.08Q219.58-19.79 218.36-18.04L218.36-18.04L218.36-18.04Q217.13-16.29 215.53-15.05L215.53-15.05L215.53-15.05Q213.92-13.81 212.17-13.02L212.17-13.02L212.17-13.02Q210.42-12.24 208.64-11.88L208.64-11.88L208.64-11.88Q206.86-11.52 205.29-11.52L205.29-11.52L186.05-11.52L186.05-20.02L205.29-20.02L205.29-20.02Q206.92-20.15 208.25-20.69L208.25-20.69L208.25-20.69Q209.57-21.23 210.52-22.15L210.52-22.15L210.52-22.15Q211.47-23.06 211.99-24.36L211.99-24.36L211.99-24.36Q212.52-25.65 212.52-27.28L212.52-27.28L212.52-31.14L212.52-31.14Q212.35-32.75 211.83-34.09L211.83-34.09L211.83-34.09Q211.31-35.43 210.41-36.38L210.41-36.38L210.41-36.38Q209.51-37.33 208.23-37.87L208.23-37.87L208.23-37.87Q206.95-38.41 205.29-38.41L205.29-38.41L186.11-38.41L186.11-38.41Q184.41-38.41 183.53-37.52L183.53-37.52L183.53-37.52Q182.65-36.64 182.65-34.97L182.65-34.97L182.65 0L174.14 0L174.14-34.97L174.14-34.97Q174.14-38.24 175.34-40.53L175.34-40.53L175.34-40.53Q176.53-42.82 178.31-44.23L178.31-44.23L178.31-44.23Q180.10-45.64 182.19-46.28L182.19-46.28L182.19-46.28Q184.28-46.91 186.05-46.91L186.05-46.91L205.29-46.91L205.29-46.91Q208.16-46.91 210.45-46.18L210.45-46.18L210.45-46.18Q212.74-45.44 214.49-44.21L214.49-44.21L214.49-44.21Q216.25-42.99 217.47-41.38L217.47-41.38L217.47-41.38Q218.70-39.78 219.50-38.03L219.50-38.03L219.50-38.03Q220.30-36.28 220.66-34.50L220.66-34.50L220.66-34.50Q221.02-32.71 221.02-31.14L221.02-31.14ZM266.66-23.46L266.66 0L258.15 0L258.15-23.46L258.15-23.46Q258.15-25.13 257.30-25.99L257.30-25.99L257.30-25.99Q256.45-26.86 254.75-26.86L254.75-26.86L239.41-26.86L239.41-35.36L254.75-35.36L254.75-35.36Q255.96-35.36 257.30-35.09L257.30-35.09L257.30-35.09Q258.64-34.81 259.97-34.22L259.97-34.22L259.97-34.22Q261.29-33.63 262.50-32.70L262.50-32.70L262.50-32.70Q263.71-31.77 264.63-30.44L264.63-30.44L264.63-30.44Q265.55-29.12 266.10-27.38L266.10-27.38L266.10-27.38Q266.66-25.65 266.66-23.46L266.66-23.46ZM235.97-50.32L235.97 0L227.47 0L227.47-50.32L235.97-50.32ZM313.11-35.36L313.11-4.29L313.11-4.29Q313.11-3.37 312.79-2.58L312.79-2.58L312.79-2.58Q312.46-1.80 311.89-1.23L311.89-1.23L311.89-1.23Q311.31-0.65 310.55-0.33L310.55-0.33L310.55-0.33Q309.78 0 308.89 0L308.89 0L289.66 0L289.66 0Q288.09 0 286.30-0.36L286.30-0.36L286.30-0.36Q284.52-0.72 282.79-1.52L282.79-1.52L282.79-1.52Q281.05-2.32 279.43-3.55L279.43-3.55L279.43-3.55Q277.81-4.78 276.60-6.53L276.60-6.53L276.60-6.53Q275.39-8.28 274.66-10.57L274.66-10.57L274.66-10.57Q273.92-12.86 273.92-15.74L273.92-15.74L273.92-35.36L282.43-35.36L282.43-15.74L282.43-15.74Q282.43-14.07 283.00-12.74L283.00-12.74L283.00-12.74Q283.57-11.42 284.55-10.47L284.55-10.47L284.55-10.47Q285.54-9.52 286.86-9.01L286.86-9.01L286.86-9.01Q288.19-8.51 289.72-8.51L289.72-8.51L304.61-8.51L304.61-35.36L313.11-35.36ZM359.57-23.46L359.57-11.94L359.57-11.94Q359.57-9.75 359.01-8.00L359.01-8.00L359.01-8.00Q358.46-6.25 357.54-4.92L357.54-4.92L357.54-4.92Q356.62-3.60 355.41-2.67L355.41-2.67L355.41-2.67Q354.20-1.73 352.88-1.15L352.88-1.15L352.88-1.15Q351.55-0.56 350.20-0.28L350.20-0.28L350.20-0.28Q348.84 0 347.63 0L347.63 0L332.28 0L332.28 0Q330.52 0 328.42-0.62L328.42-0.62L328.42-0.62Q326.33-1.24 324.55-2.67L324.55-2.67L324.55-2.67Q322.76-4.09 321.57-6.36L321.57-6.36L321.57-6.36Q320.38-8.64 320.38-11.94L320.38-11.94L320.38-23.46L320.38-23.46Q320.38-26.73 321.57-29.00L321.57-29.00L321.57-29.00Q322.76-31.28 324.55-32.70L324.55-32.70L324.55-32.70Q326.33-34.12 328.42-34.74L328.42-34.74L328.42-34.74Q330.52-35.36 332.28-35.36L332.28-35.36L347.63-35.36L347.63-35.36Q350.90-35.36 353.19-34.19L353.19-34.19L353.19-34.19Q355.48-33.01 356.89-31.23L356.89-31.23L356.89-31.23Q358.29-29.44 358.93-27.35L358.93-27.35L358.93-27.35Q359.57-25.26 359.57-23.46L359.57-23.46ZM351.06-11.94L351.06-23.39L351.06-23.39Q351.06-25.16 350.18-26.01L350.18-26.01L350.18-26.01Q349.30-26.86 347.63-26.86L347.63-26.86L332.35-26.86L332.35-26.86Q330.65-26.86 329.77-25.99L329.77-25.99L329.77-25.99Q328.88-25.13 328.88-23.46L328.88-23.46L328.88-11.94L328.88-11.94Q328.88-10.27 329.77-9.39L329.77-9.39L329.77-9.39Q330.65-8.51 332.35-8.51L332.35-8.51L347.63-8.51L347.63-8.51Q349.36-8.51 350.21-9.39L350.21-9.39L350.21-9.39Q351.06-10.27 351.06-11.94L351.06-11.94ZM405.99-19.63L405.99 0L397.49 0L397.49-19.63L397.49-19.63Q397.49-21.30 396.91-22.62L396.91-22.62L396.91-22.62Q396.34-23.95 395.36-24.90L395.36-24.90L395.36-24.90Q394.38-25.84 393.05-26.35L393.05-26.35L393.05-26.35Q391.73-26.86 390.19-26.86L390.19-26.86L375.30-26.86L375.30 0L366.80 0L366.80-31.14L366.80-31.14Q366.80-32.03 367.13-32.80L367.13-32.80L367.13-32.80Q367.45-33.57 368.04-34.14L368.04-34.14L368.04-34.14Q368.63-34.71 369.42-35.04L369.42-35.04L369.42-35.04Q370.20-35.36 371.08-35.36L371.08-35.36L390.26-35.36L390.26-35.36Q391.86-35.36 393.64-35.00L393.64-35.00L393.64-35.00Q395.42-34.65 397.17-33.84L397.17-33.84L397.17-33.84Q398.92-33.04 400.51-31.82L400.51-31.82L400.51-31.82Q402.10-30.59 403.32-28.84L403.32-28.84L403.32-28.84Q404.55-27.09 405.27-24.80L405.27-24.80L405.27-24.80Q405.99-22.51 405.99-19.63L405.99-19.63ZM451.92-23.46L451.92 3.40L451.92 3.40Q451.92 5.59 451.37 7.34L451.37 7.34L451.37 7.34Q450.81 9.09 449.89 10.42L449.89 10.42L449.89 10.42Q448.98 11.74 447.77 12.68L447.77 12.68L447.77 12.68Q446.56 13.61 445.23 14.20L445.23 14.20L445.23 14.20Q443.91 14.79 442.55 15.07L442.55 15.07L442.55 15.07Q441.19 15.34 439.98 15.34L439.98 15.34L424.64 15.34L424.64 6.84L439.98 6.84L439.98 6.84Q441.72 6.84 442.57 5.95L442.57 5.95L442.57 5.95Q443.42 5.07 443.42 3.40L443.42 3.40L443.42-23.46L443.42-23.46Q443.42-25.13 442.57-25.99L442.57-25.99L442.57-25.99Q441.72-26.86 439.98-26.86L439.98-26.86L424.64-26.86L424.64-26.86Q423.07-26.86 422.15-25.89L422.15-25.89L422.15-25.89Q421.24-24.93 421.24-23.46L421.24-23.46L421.24-11.94L421.24-11.94Q421.24-10.27 422.12-9.39L422.12-9.39L422.12-9.39Q423.00-8.51 424.70-8.51L424.70-8.51L439.98-8.51L439.98 0L424.64 0L424.64 0Q423.43 0 422.09-0.28L422.09-0.28L422.09-0.28Q420.75-0.56 419.42-1.15L419.42-1.15L419.42-1.15Q418.10-1.73 416.89-2.67L416.89-2.67L416.89-2.67Q415.67-3.60 414.76-4.92L414.76-4.92L414.76-4.92Q413.84-6.25 413.29-8.00L413.29-8.00L413.29-8.00Q412.73-9.75 412.73-11.94L412.73-11.94L412.73-23.46L412.73-23.46Q412.73-24.67 413.01-26.01L413.01-26.01L413.01-26.01Q413.29-27.35 413.88-28.67L413.88-28.67L413.88-28.67Q414.46-30.00 415.40-31.21L415.40-31.21L415.40-31.21Q416.33-32.42 417.65-33.34L417.65-33.34L417.65-33.34Q418.98-34.25 420.71-34.81L420.71-34.81L420.71-34.81Q422.45-35.36 424.64-35.36L424.64-35.36L439.98-35.36L439.98-35.36Q441.19-35.36 442.55-35.09L442.55-35.09L442.55-35.09Q443.91-34.81 445.23-34.22L445.23-34.22L445.23-34.22Q446.56-33.63 447.77-32.70L447.77-32.70L447.77-32.70Q448.98-31.77 449.89-30.44L449.89-30.44L449.89-30.44Q450.81-29.12 451.37-27.38L451.37-27.38L451.37-27.38Q451.92-25.65 451.92-23.46L451.92-23.46ZM491.02-46.91L491.02-27.74L520.89-27.74L520.89-46.91L529.39-46.91L529.39 0L520.89 0L520.89-19.17L491.02-19.17L491.02 0L482.51 0L482.51-46.91L491.02-46.91ZM576.63-23.46L576.63-11.94L576.63-11.94Q576.63-9.75 576.08-8.00L576.08-8.00L576.08-8.00Q575.52-6.25 574.60-4.92L574.60-4.92L574.60-4.92Q573.69-3.60 572.48-2.67L572.48-2.67L572.48-2.67Q571.27-1.73 569.94-1.15L569.94-1.15L569.94-1.15Q568.62-0.56 567.26-0.28L567.26-0.28L567.26-0.28Q565.90 0 564.69 0L564.69 0L549.35 0L549.35 0Q547.58 0 545.49-0.62L545.49-0.62L545.49-0.62Q543.39-1.24 541.61-2.67L541.61-2.67L541.61-2.67Q539.83-4.09 538.63-6.36L538.63-6.36L538.63-6.36Q537.44-8.64 537.44-11.94L537.44-11.94L537.44-23.46L537.44-23.46Q537.44-26.73 538.63-29.00L538.63-29.00L538.63-29.00Q539.83-31.28 541.61-32.70L541.61-32.70L541.61-32.70Q543.39-34.12 545.49-34.74L545.49-34.74L545.49-34.74Q547.58-35.36 549.35-35.36L549.35-35.36L564.69-35.36L564.69-35.36Q567.96-35.36 570.25-34.19L570.25-34.19L570.25-34.19Q572.54-33.01 573.95-31.23L573.95-31.23L573.95-31.23Q575.36-29.44 575.99-27.35L575.99-27.35L575.99-27.35Q576.63-25.26 576.63-23.46L576.63-23.46ZM568.13-11.94L568.13-23.39L568.13-23.39Q568.13-25.16 567.24-26.01L567.24-26.01L567.24-26.01Q566.36-26.86 564.69-26.86L564.69-26.86L549.41-26.86L549.41-26.86Q547.71-26.86 546.83-25.99L546.83-25.99L546.83-25.99Q545.95-25.13 545.95-23.46L545.95-23.46L545.95-11.94L545.95-11.94Q545.95-10.27 546.83-9.39L546.83-9.39L546.83-9.39Q547.71-8.51 549.41-8.51L549.41-8.51L564.69-8.51L564.69-8.51Q566.42-8.51 567.28-9.39L567.28-9.39L567.28-9.39Q568.13-10.27 568.13-11.94L568.13-11.94ZM623.05-19.63L623.05 0L614.55 0L614.55-19.63L614.55-19.63Q614.55-21.30 613.98-22.62L613.98-22.62L613.98-22.62Q613.40-23.95 612.42-24.90L612.42-24.90L612.42-24.90Q611.44-25.84 610.12-26.35L610.12-26.35L610.12-26.35Q608.79-26.86 607.25-26.86L607.25-26.86L592.37-26.86L592.37 0L583.86 0L583.86-31.14L583.86-31.14Q583.86-32.03 584.19-32.80L584.19-32.80L584.19-32.80Q584.52-33.57 585.10-34.14L585.10-34.14L585.10-34.14Q585.69-34.71 586.48-35.04L586.48-35.04L586.48-35.04Q587.26-35.36 588.15-35.36L588.15-35.36L607.32-35.36L607.32-35.36Q608.92-35.36 610.70-35.00L610.70-35.00L610.70-35.00Q612.49-34.65 614.24-33.84L614.24-33.84L614.24-33.84Q615.99-33.04 617.57-31.82L617.57-31.82L617.57-31.82Q619.16-30.59 620.39-28.84L620.39-28.84L620.39-28.84Q621.61-27.09 622.33-24.80L622.33-24.80L622.33-24.80Q623.05-22.51 623.05-19.63L623.05-19.63ZM668.99-23.46L668.99 3.40L668.99 3.40Q668.99 5.59 668.43 7.34L668.43 7.34L668.43 7.34Q667.87 9.09 666.96 10.42L666.96 10.42L666.96 10.42Q666.04 11.74 664.83 12.68L664.83 12.68L664.83 12.68Q663.62 13.61 662.30 14.20L662.30 14.20L662.30 14.20Q660.97 14.79 659.61 15.07L659.61 15.07L659.61 15.07Q658.26 15.34 657.04 15.34L657.04 15.34L641.70 15.34L641.70 6.84L657.04 6.84L657.04 6.84Q658.78 6.84 659.63 5.95L659.63 5.95L659.63 5.95Q660.48 5.07 660.48 3.40L660.48 3.40L660.48-23.46L660.48-23.46Q660.48-25.13 659.63-25.99L659.63-25.99L659.63-25.99Q658.78-26.86 657.04-26.86L657.04-26.86L641.70-26.86L641.70-26.86Q640.13-26.86 639.22-25.89L639.22-25.89L639.22-25.89Q638.30-24.93 638.30-23.46L638.30-23.46L638.30-11.94L638.30-11.94Q638.30-10.27 639.18-9.39L639.18-9.39L639.18-9.39Q640.07-8.51 641.77-8.51L641.77-8.51L657.04-8.51L657.04 0L641.70 0L641.70 0Q640.49 0 639.15-0.28L639.15-0.28L639.15-0.28Q637.81-0.56 636.48-1.15L636.48-1.15L636.48-1.15Q635.16-1.73 633.95-2.67L633.95-2.67L633.95-2.67Q632.74-3.60 631.82-4.92L631.82-4.92L631.82-4.92Q630.91-6.25 630.35-8.00L630.35-8.00L630.35-8.00Q629.79-9.75 629.79-11.94L629.79-11.94L629.79-23.46L629.79-23.46Q629.79-24.67 630.07-26.01L630.07-26.01L630.07-26.01Q630.35-27.35 630.94-28.67L630.94-28.67L630.94-28.67Q631.53-30.00 632.46-31.21L632.46-31.21L632.46-31.21Q633.39-32.42 634.72-33.34L634.72-33.34L634.72-33.34Q636.04-34.25 637.78-34.81L637.78-34.81L637.78-34.81Q639.51-35.36 641.70-35.36L641.70-35.36L657.04-35.36L657.04-35.36Q658.26-35.36 659.61-35.09L659.61-35.09L659.61-35.09Q660.97-34.81 662.30-34.22L662.30-34.22L662.30-34.22Q663.62-33.63 664.83-32.70L664.83-32.70L664.83-32.70Q666.04-31.77 666.96-30.44L666.96-30.44L666.96-30.44Q667.87-29.12 668.43-27.38L668.43-27.38L668.43-27.38Q668.99-25.65 668.99-23.46L668.99-23.46Z" fill="url(#editing-shiny-gradient)"></path></g></g><g filter="url(#editing-shiny2)"><g transform="translate(-87.00002098083496, 107.82999801635742)"><path d="M13.51-46.91L13.51-27.74L43.38-27.74L43.38-46.91L51.89-46.91L51.89 0L43.38 0L43.38-19.17L13.51-19.17L13.51 0L5.01 0L5.01-46.91L13.51-46.91ZM98.70-23.65L98.70-23.65L98.70-23.65Q98.70-21.89 98.08-19.84L98.08-19.84L98.08-19.84Q97.46-17.80 96.07-16.05L96.07-16.05L96.07-16.05Q94.68-14.30 92.44-13.12L92.44-13.12L92.44-13.12Q90.19-11.94 86.99-11.94L86.99-11.94L71.65-11.94L71.65-20.02L86.99-20.02L86.99-20.02Q88.72-20.02 89.67-21.08L89.67-21.08L89.67-21.08Q90.62-22.15 90.62-23.72L90.62-23.72L90.62-23.72Q90.62-25.39 89.56-26.34L89.56-26.34L89.56-26.34Q88.49-27.28 86.99-27.28L86.99-27.28L71.65-27.28L71.65-27.28Q69.91-27.28 68.96-26.22L68.96-26.22L68.96-26.22Q68.01-25.16 68.01-23.59L68.01-23.59L68.01-11.71L68.01-11.71Q68.01-10.01 69.08-9.06L69.08-9.06L69.08-9.06Q70.14-8.11 71.71-8.11L71.71-8.11L86.99-8.11L86.99 0L71.65 0L71.65 0Q69.88 0 67.83-0.62L67.83-0.62L67.83-0.62Q65.79-1.24 64.04-2.63L64.04-2.63L64.04-2.63Q62.29-4.02 61.11-6.26L61.11-6.26L61.11-6.26Q59.93-8.51 59.93-11.71L59.93-11.71L59.93-23.65L59.93-23.65Q59.93-25.42 60.56-27.46L60.56-27.46L60.56-27.46Q61.18-29.51 62.57-31.26L62.57-31.26L62.57-31.26Q63.96-33.01 66.20-34.19L66.20-34.19L66.20-34.19Q68.44-35.36 71.65-35.36L71.65-35.36L86.99-35.36L86.99-35.36Q88.76-35.36 90.80-34.74L90.80-34.74L90.80-34.74Q92.84-34.12 94.59-32.73L94.59-32.73L94.59-32.73Q96.35-31.34 97.52-29.10L97.52-29.10L97.52-29.10Q98.70-26.86 98.70-23.65ZM143.42-35.36L143.42 3.40L143.42 3.40Q143.42 5.59 142.87 7.34L142.87 7.34L142.87 7.34Q142.31 9.09 141.39 10.42L141.39 10.42L141.39 10.42Q140.48 11.74 139.27 12.68L139.27 12.68L139.27 12.68Q138.06 13.61 136.73 14.20L136.73 14.20L136.73 14.20Q135.41 14.79 134.07 15.07L134.07 15.07L134.07 15.07Q132.72 15.34 131.51 15.34L131.51 15.34L116.17 15.34L116.17 6.84L131.51 6.84L131.51 6.84Q133.21 6.84 134.07 5.95L134.07 5.95L134.07 5.95Q134.92 5.07 134.92 3.40L134.92 3.40L134.92-35.36L143.42-35.36ZM131.51-8.51L131.51 0L116.17 0L116.17 0Q114.34 0 112.26-0.62L112.26-0.62L112.26-0.62Q110.18-1.24 108.38-2.67L108.38-2.67L108.38-2.67Q106.58-4.09 105.41-6.36L105.41-6.36L105.41-6.36Q104.23-8.64 104.23-11.94L104.23-11.94L104.23-35.36L112.74-35.36L112.74-11.94L112.74-11.94Q112.74-10.27 113.62-9.39L113.62-9.39L113.62-9.39Q114.50-8.51 116.24-8.51L116.24-8.51L131.51-8.51ZM221.02-31.14L221.02-27.28L221.02-27.28Q221.02-24.37 220.30-22.08L220.30-22.08L220.30-22.08Q219.58-19.79 218.36-18.04L218.36-18.04L218.36-18.04Q217.13-16.29 215.53-15.05L215.53-15.05L215.53-15.05Q213.92-13.81 212.17-13.02L212.17-13.02L212.17-13.02Q210.42-12.24 208.64-11.88L208.64-11.88L208.64-11.88Q206.86-11.52 205.29-11.52L205.29-11.52L186.05-11.52L186.05-20.02L205.29-20.02L205.29-20.02Q206.92-20.15 208.25-20.69L208.25-20.69L208.25-20.69Q209.57-21.23 210.52-22.15L210.52-22.15L210.52-22.15Q211.47-23.06 211.99-24.36L211.99-24.36L211.99-24.36Q212.52-25.65 212.52-27.28L212.52-27.28L212.52-31.14L212.52-31.14Q212.35-32.75 211.83-34.09L211.83-34.09L211.83-34.09Q211.31-35.43 210.41-36.38L210.41-36.38L210.41-36.38Q209.51-37.33 208.23-37.87L208.23-37.87L208.23-37.87Q206.95-38.41 205.29-38.41L205.29-38.41L186.11-38.41L186.11-38.41Q184.41-38.41 183.53-37.52L183.53-37.52L183.53-37.52Q182.65-36.64 182.65-34.97L182.65-34.97L182.65 0L174.14 0L174.14-34.97L174.14-34.97Q174.14-38.24 175.34-40.53L175.34-40.53L175.34-40.53Q176.53-42.82 178.31-44.23L178.31-44.23L178.31-44.23Q180.10-45.64 182.19-46.28L182.19-46.28L182.19-46.28Q184.28-46.91 186.05-46.91L186.05-46.91L205.29-46.91L205.29-46.91Q208.16-46.91 210.45-46.18L210.45-46.18L210.45-46.18Q212.74-45.44 214.49-44.21L214.49-44.21L214.49-44.21Q216.25-42.99 217.47-41.38L217.47-41.38L217.47-41.38Q218.70-39.78 219.50-38.03L219.50-38.03L219.50-38.03Q220.30-36.28 220.66-34.50L220.66-34.50L220.66-34.50Q221.02-32.71 221.02-31.14L221.02-31.14ZM266.66-23.46L266.66 0L258.15 0L258.15-23.46L258.15-23.46Q258.15-25.13 257.30-25.99L257.30-25.99L257.30-25.99Q256.45-26.86 254.75-26.86L254.75-26.86L239.41-26.86L239.41-35.36L254.75-35.36L254.75-35.36Q255.96-35.36 257.30-35.09L257.30-35.09L257.30-35.09Q258.64-34.81 259.97-34.22L259.97-34.22L259.97-34.22Q261.29-33.63 262.50-32.70L262.50-32.70L262.50-32.70Q263.71-31.77 264.63-30.44L264.63-30.44L264.63-30.44Q265.55-29.12 266.10-27.38L266.10-27.38L266.10-27.38Q266.66-25.65 266.66-23.46L266.66-23.46ZM235.97-50.32L235.97 0L227.47 0L227.47-50.32L235.97-50.32ZM313.11-35.36L313.11-4.29L313.11-4.29Q313.11-3.37 312.79-2.58L312.79-2.58L312.79-2.58Q312.46-1.80 311.89-1.23L311.89-1.23L311.89-1.23Q311.31-0.65 310.55-0.33L310.55-0.33L310.55-0.33Q309.78 0 308.89 0L308.89 0L289.66 0L289.66 0Q288.09 0 286.30-0.36L286.30-0.36L286.30-0.36Q284.52-0.72 282.79-1.52L282.79-1.52L282.79-1.52Q281.05-2.32 279.43-3.55L279.43-3.55L279.43-3.55Q277.81-4.78 276.60-6.53L276.60-6.53L276.60-6.53Q275.39-8.28 274.66-10.57L274.66-10.57L274.66-10.57Q273.92-12.86 273.92-15.74L273.92-15.74L273.92-35.36L282.43-35.36L282.43-15.74L282.43-15.74Q282.43-14.07 283.00-12.74L283.00-12.74L283.00-12.74Q283.57-11.42 284.55-10.47L284.55-10.47L284.55-10.47Q285.54-9.52 286.86-9.01L286.86-9.01L286.86-9.01Q288.19-8.51 289.72-8.51L289.72-8.51L304.61-8.51L304.61-35.36L313.11-35.36ZM359.57-23.46L359.57-11.94L359.57-11.94Q359.57-9.75 359.01-8.00L359.01-8.00L359.01-8.00Q358.46-6.25 357.54-4.92L357.54-4.92L357.54-4.92Q356.62-3.60 355.41-2.67L355.41-2.67L355.41-2.67Q354.20-1.73 352.88-1.15L352.88-1.15L352.88-1.15Q351.55-0.56 350.20-0.28L350.20-0.28L350.20-0.28Q348.84 0 347.63 0L347.63 0L332.28 0L332.28 0Q330.52 0 328.42-0.62L328.42-0.62L328.42-0.62Q326.33-1.24 324.55-2.67L324.55-2.67L324.55-2.67Q322.76-4.09 321.57-6.36L321.57-6.36L321.57-6.36Q320.38-8.64 320.38-11.94L320.38-11.94L320.38-23.46L320.38-23.46Q320.38-26.73 321.57-29.00L321.57-29.00L321.57-29.00Q322.76-31.28 324.55-32.70L324.55-32.70L324.55-32.70Q326.33-34.12 328.42-34.74L328.42-34.74L328.42-34.74Q330.52-35.36 332.28-35.36L332.28-35.36L347.63-35.36L347.63-35.36Q350.90-35.36 353.19-34.19L353.19-34.19L353.19-34.19Q355.48-33.01 356.89-31.23L356.89-31.23L356.89-31.23Q358.29-29.44 358.93-27.35L358.93-27.35L358.93-27.35Q359.57-25.26 359.57-23.46L359.57-23.46ZM351.06-11.94L351.06-23.39L351.06-23.39Q351.06-25.16 350.18-26.01L350.18-26.01L350.18-26.01Q349.30-26.86 347.63-26.86L347.63-26.86L332.35-26.86L332.35-26.86Q330.65-26.86 329.77-25.99L329.77-25.99L329.77-25.99Q328.88-25.13 328.88-23.46L328.88-23.46L328.88-11.94L328.88-11.94Q328.88-10.27 329.77-9.39L329.77-9.39L329.77-9.39Q330.65-8.51 332.35-8.51L332.35-8.51L347.63-8.51L347.63-8.51Q349.36-8.51 350.21-9.39L350.21-9.39L350.21-9.39Q351.06-10.27 351.06-11.94L351.06-11.94ZM405.99-19.63L405.99 0L397.49 0L397.49-19.63L397.49-19.63Q397.49-21.30 396.91-22.62L396.91-22.62L396.91-22.62Q396.34-23.95 395.36-24.90L395.36-24.90L395.36-24.90Q394.38-25.84 393.05-26.35L393.05-26.35L393.05-26.35Q391.73-26.86 390.19-26.86L390.19-26.86L375.30-26.86L375.30 0L366.80 0L366.80-31.14L366.80-31.14Q366.80-32.03 367.13-32.80L367.13-32.80L367.13-32.80Q367.45-33.57 368.04-34.14L368.04-34.14L368.04-34.14Q368.63-34.71 369.42-35.04L369.42-35.04L369.42-35.04Q370.20-35.36 371.08-35.36L371.08-35.36L390.26-35.36L390.26-35.36Q391.86-35.36 393.64-35.00L393.64-35.00L393.64-35.00Q395.42-34.65 397.17-33.84L397.17-33.84L397.17-33.84Q398.92-33.04 400.51-31.82L400.51-31.82L400.51-31.82Q402.10-30.59 403.32-28.84L403.32-28.84L403.32-28.84Q404.55-27.09 405.27-24.80L405.27-24.80L405.27-24.80Q405.99-22.51 405.99-19.63L405.99-19.63ZM451.92-23.46L451.92 3.40L451.92 3.40Q451.92 5.59 451.37 7.34L451.37 7.34L451.37 7.34Q450.81 9.09 449.89 10.42L449.89 10.42L449.89 10.42Q448.98 11.74 447.77 12.68L447.77 12.68L447.77 12.68Q446.56 13.61 445.23 14.20L445.23 14.20L445.23 14.20Q443.91 14.79 442.55 15.07L442.55 15.07L442.55 15.07Q441.19 15.34 439.98 15.34L439.98 15.34L424.64 15.34L424.64 6.84L439.98 6.84L439.98 6.84Q441.72 6.84 442.57 5.95L442.57 5.95L442.57 5.95Q443.42 5.07 443.42 3.40L443.42 3.40L443.42-23.46L443.42-23.46Q443.42-25.13 442.57-25.99L442.57-25.99L442.57-25.99Q441.72-26.86 439.98-26.86L439.98-26.86L424.64-26.86L424.64-26.86Q423.07-26.86 422.15-25.89L422.15-25.89L422.15-25.89Q421.24-24.93 421.24-23.46L421.24-23.46L421.24-11.94L421.24-11.94Q421.24-10.27 422.12-9.39L422.12-9.39L422.12-9.39Q423.00-8.51 424.70-8.51L424.70-8.51L439.98-8.51L439.98 0L424.64 0L424.64 0Q423.43 0 422.09-0.28L422.09-0.28L422.09-0.28Q420.75-0.56 419.42-1.15L419.42-1.15L419.42-1.15Q418.10-1.73 416.89-2.67L416.89-2.67L416.89-2.67Q415.67-3.60 414.76-4.92L414.76-4.92L414.76-4.92Q413.84-6.25 413.29-8.00L413.29-8.00L413.29-8.00Q412.73-9.75 412.73-11.94L412.73-11.94L412.73-23.46L412.73-23.46Q412.73-24.67 413.01-26.01L413.01-26.01L413.01-26.01Q413.29-27.35 413.88-28.67L413.88-28.67L413.88-28.67Q414.46-30.00 415.40-31.21L415.40-31.21L415.40-31.21Q416.33-32.42 417.65-33.34L417.65-33.34L417.65-33.34Q418.98-34.25 420.71-34.81L420.71-34.81L420.71-34.81Q422.45-35.36 424.64-35.36L424.64-35.36L439.98-35.36L439.98-35.36Q441.19-35.36 442.55-35.09L442.55-35.09L442.55-35.09Q443.91-34.81 445.23-34.22L445.23-34.22L445.23-34.22Q446.56-33.63 447.77-32.70L447.77-32.70L447.77-32.70Q448.98-31.77 449.89-30.44L449.89-30.44L449.89-30.44Q450.81-29.12 451.37-27.38L451.37-27.38L451.37-27.38Q451.92-25.65 451.92-23.46L451.92-23.46ZM491.02-46.91L491.02-27.74L520.89-27.74L520.89-46.91L529.39-46.91L529.39 0L520.89 0L520.89-19.17L491.02-19.17L491.02 0L482.51 0L482.51-46.91L491.02-46.91ZM576.63-23.46L576.63-11.94L576.63-11.94Q576.63-9.75 576.08-8.00L576.08-8.00L576.08-8.00Q575.52-6.25 574.60-4.92L574.60-4.92L574.60-4.92Q573.69-3.60 572.48-2.67L572.48-2.67L572.48-2.67Q571.27-1.73 569.94-1.15L569.94-1.15L569.94-1.15Q568.62-0.56 567.26-0.28L567.26-0.28L567.26-0.28Q565.90 0 564.69 0L564.69 0L549.35 0L549.35 0Q547.58 0 545.49-0.62L545.49-0.62L545.49-0.62Q543.39-1.24 541.61-2.67L541.61-2.67L541.61-2.67Q539.83-4.09 538.63-6.36L538.63-6.36L538.63-6.36Q537.44-8.64 537.44-11.94L537.44-11.94L537.44-23.46L537.44-23.46Q537.44-26.73 538.63-29.00L538.63-29.00L538.63-29.00Q539.83-31.28 541.61-32.70L541.61-32.70L541.61-32.70Q543.39-34.12 545.49-34.74L545.49-34.74L545.49-34.74Q547.58-35.36 549.35-35.36L549.35-35.36L564.69-35.36L564.69-35.36Q567.96-35.36 570.25-34.19L570.25-34.19L570.25-34.19Q572.54-33.01 573.95-31.23L573.95-31.23L573.95-31.23Q575.36-29.44 575.99-27.35L575.99-27.35L575.99-27.35Q576.63-25.26 576.63-23.46L576.63-23.46ZM568.13-11.94L568.13-23.39L568.13-23.39Q568.13-25.16 567.24-26.01L567.24-26.01L567.24-26.01Q566.36-26.86 564.69-26.86L564.69-26.86L549.41-26.86L549.41-26.86Q547.71-26.86 546.83-25.99L546.83-25.99L546.83-25.99Q545.95-25.13 545.95-23.46L545.95-23.46L545.95-11.94L545.95-11.94Q545.95-10.27 546.83-9.39L546.83-9.39L546.83-9.39Q547.71-8.51 549.41-8.51L549.41-8.51L564.69-8.51L564.69-8.51Q566.42-8.51 567.28-9.39L567.28-9.39L567.28-9.39Q568.13-10.27 568.13-11.94L568.13-11.94ZM623.05-19.63L623.05 0L614.55 0L614.55-19.63L614.55-19.63Q614.55-21.30 613.98-22.62L613.98-22.62L613.98-22.62Q613.40-23.95 612.42-24.90L612.42-24.90L612.42-24.90Q611.44-25.84 610.12-26.35L610.12-26.35L610.12-26.35Q608.79-26.86 607.25-26.86L607.25-26.86L592.37-26.86L592.37 0L583.86 0L583.86-31.14L583.86-31.14Q583.86-32.03 584.19-32.80L584.19-32.80L584.19-32.80Q584.52-33.57 585.10-34.14L585.10-34.14L585.10-34.14Q585.69-34.71 586.48-35.04L586.48-35.04L586.48-35.04Q587.26-35.36 588.15-35.36L588.15-35.36L607.32-35.36L607.32-35.36Q608.92-35.36 610.70-35.00L610.70-35.00L610.70-35.00Q612.49-34.65 614.24-33.84L614.24-33.84L614.24-33.84Q615.99-33.04 617.57-31.82L617.57-31.82L617.57-31.82Q619.16-30.59 620.39-28.84L620.39-28.84L620.39-28.84Q621.61-27.09 622.33-24.80L622.33-24.80L622.33-24.80Q623.05-22.51 623.05-19.63L623.05-19.63ZM668.99-23.46L668.99 3.40L668.99 3.40Q668.99 5.59 668.43 7.34L668.43 7.34L668.43 7.34Q667.87 9.09 666.96 10.42L666.96 10.42L666.96 10.42Q666.04 11.74 664.83 12.68L664.83 12.68L664.83 12.68Q663.62 13.61 662.30 14.20L662.30 14.20L662.30 14.20Q660.97 14.79 659.61 15.07L659.61 15.07L659.61 15.07Q658.26 15.34 657.04 15.34L657.04 15.34L641.70 15.34L641.70 6.84L657.04 6.84L657.04 6.84Q658.78 6.84 659.63 5.95L659.63 5.95L659.63 5.95Q660.48 5.07 660.48 3.40L660.48 3.40L660.48-23.46L660.48-23.46Q660.48-25.13 659.63-25.99L659.63-25.99L659.63-25.99Q658.78-26.86 657.04-26.86L657.04-26.86L641.70-26.86L641.70-26.86Q640.13-26.86 639.22-25.89L639.22-25.89L639.22-25.89Q638.30-24.93 638.30-23.46L638.30-23.46L638.30-11.94L638.30-11.94Q638.30-10.27 639.18-9.39L639.18-9.39L639.18-9.39Q640.07-8.51 641.77-8.51L641.77-8.51L657.04-8.51L657.04 0L641.70 0L641.70 0Q640.49 0 639.15-0.28L639.15-0.28L639.15-0.28Q637.81-0.56 636.48-1.15L636.48-1.15L636.48-1.15Q635.16-1.73 633.95-2.67L633.95-2.67L633.95-2.67Q632.74-3.60 631.82-4.92L631.82-4.92L631.82-4.92Q630.91-6.25 630.35-8.00L630.35-8.00L630.35-8.00Q629.79-9.75 629.79-11.94L629.79-11.94L629.79-23.46L629.79-23.46Q629.79-24.67 630.07-26.01L630.07-26.01L630.07-26.01Q630.35-27.35 630.94-28.67L630.94-28.67L630.94-28.67Q631.53-30.00 632.46-31.21L632.46-31.21L632.46-31.21Q633.39-32.42 634.72-33.34L634.72-33.34L634.72-33.34Q636.04-34.25 637.78-34.81L637.78-34.81L637.78-34.81Q639.51-35.36 641.70-35.36L641.70-35.36L657.04-35.36L657.04-35.36Q658.26-35.36 659.61-35.09L659.61-35.09L659.61-35.09Q660.97-34.81 662.30-34.22L662.30-34.22L662.30-34.22Q663.62-33.63 664.83-32.70L664.83-32.70L664.83-32.70Q666.04-31.77 666.96-30.44L666.96-30.44L666.96-30.44Q667.87-29.12 668.43-27.38L668.43-27.38L668.43-27.38Q668.99-25.65 668.99-23.46L668.99-23.46Z" fill="url(#editing-shiny-gradient2)"></path></g></g><style>text {
  font-size: 64px;
  font-family: Arial Black;
  dominant-baseline: central;
  text-anchor: middle;
}</style></svg>